<?xml version="1.0" encoding="iso-8859-1"?>
<!-- Generator: Adobe Illustrator 19.0.0, SVG Export Plug-In . SVG Version: 6.00 Build 0)  -->
<svg version="1.1" id="Capa_1" xmlns="http://www.w3.org/2000/svg" xmlns:xlink="http://www.w3.org/1999/xlink" x="0px" y="0px"
	 viewBox="0 0 512 512" style="enable-background:new 0 0 512 512;" xml:space="preserve">
		<g>
			<path d="M192,376h16v-84.688l18.344,18.344l11.312-11.312l-32-32c-3.124-3.123-8.188-3.123-11.312,0l-32,32l11.312,11.312
				L192,291.312V376z"/>
			<path d="M306.344,266.344l-32,32l11.312,11.312L304,291.312V376h16v-84.688l18.344,18.344l11.312-11.312l-32-32
				C314.532,263.221,309.468,263.221,306.344,266.344z"/>
			<rect x="176" y="400" width="160" height="16"/>
			<path d="M496,40H16C7.163,40,0,47.163,0,56v400c0,8.837,7.163,16,16,16h480c8.837,0,16-7.163,16-16V56
				C512,47.163,504.837,40,496,40z M192,96h128v107.72l-16,10.68l-19.608-13.04c-2.685-1.786-6.179-1.786-8.864,0l-19.56,13.04
				l-19.552-13.04c-2.688-1.794-6.192-1.794-8.88,0L208,214.4l-16-10.68V96z M320,80H192V56h128V80z M16,456V104h136V88H16V56h160
				v152c-0.004,2.661,1.315,5.15,3.52,6.64l24,16c2.688,1.794,6.192,1.794,8.88,0l19.544-13.04l19.552,13.04
				c2.686,1.79,6.186,1.79,8.872,0l19.568-13.04l19.624,13.064c1.316,0.874,2.861,1.339,4.44,1.336
				c1.577,0.001,3.119-0.464,4.432-1.336l24-16c2.23-1.484,3.569-3.985,3.568-6.664V56h160v32H360v16h136v352H16z"/>	</g>
</svg>
